<mxfile host="app.diagrams.net" modified="2020-10-04T21:01:07.509Z" agent="5.0 (X11)" etag="yq5N-MP9AaYi2KAApCWU" version="13.7.7" type="github">
  <diagram id="zTmtTd7neOy6DIzu7sHP" name="Page-1">
    <mxGraphModel dx="3762" dy="2249" grid="1" gridSize="10" guides="1" tooltips="1" connect="1" arrows="1" fold="1" page="1" pageScale="1" pageWidth="850" pageHeight="1100" math="0" shadow="0">
      <root>
        <mxCell id="0" />
        <mxCell id="1" parent="0" />
        <mxCell id="1dCuARmQQFrfibx1cBCv-2" value="Table" style="rounded=0;whiteSpace=wrap;html=1;fillColor=#FFFFFF;" parent="1" vertex="1">
          <mxGeometry x="-220" y="-330" width="160" height="40" as="geometry" />
        </mxCell>
        <mxCell id="1dCuARmQQFrfibx1cBCv-14" value="" style="group" parent="1" vertex="1" connectable="0">
          <mxGeometry x="-220" y="-290" width="160" height="40" as="geometry" />
        </mxCell>
        <mxCell id="yTg_aaxLceIdwKCnXvtw-22" value="" style="group" parent="1dCuARmQQFrfibx1cBCv-14" vertex="1" connectable="0">
          <mxGeometry width="160" height="40" as="geometry" />
        </mxCell>
        <mxCell id="yTg_aaxLceIdwKCnXvtw-18" value="" style="rounded=0;whiteSpace=wrap;html=1;" parent="yTg_aaxLceIdwKCnXvtw-22" vertex="1">
          <mxGeometry width="160" height="40" as="geometry" />
        </mxCell>
        <mxCell id="yTg_aaxLceIdwKCnXvtw-19" value="" style="endArrow=none;html=1;entryX=0.25;entryY=0;entryDx=0;entryDy=0;exitX=0.25;exitY=1;exitDx=0;exitDy=0;" parent="yTg_aaxLceIdwKCnXvtw-22" source="yTg_aaxLceIdwKCnXvtw-18" target="yTg_aaxLceIdwKCnXvtw-18" edge="1">
          <mxGeometry width="50" height="50" relative="1" as="geometry">
            <mxPoint x="26.666666666666664" y="40" as="sourcePoint" />
            <mxPoint x="26.666666666666664" as="targetPoint" />
          </mxGeometry>
        </mxCell>
        <mxCell id="yTg_aaxLceIdwKCnXvtw-20" value="Text" style="text;html=1;strokeColor=none;fillColor=none;align=center;verticalAlign=middle;whiteSpace=wrap;rounded=0;" parent="yTg_aaxLceIdwKCnXvtw-22" vertex="1">
          <mxGeometry width="40" height="40" as="geometry" />
        </mxCell>
        <mxCell id="yTg_aaxLceIdwKCnXvtw-21" value="Text" style="text;html=1;strokeColor=none;fillColor=none;align=center;verticalAlign=middle;whiteSpace=wrap;rounded=0;" parent="yTg_aaxLceIdwKCnXvtw-22" vertex="1">
          <mxGeometry x="40" width="120" height="40" as="geometry" />
        </mxCell>
        <mxCell id="1TDYrzWobA5GGV8SR7Ec-72" value="Date Reported Table" style="rounded=0;whiteSpace=wrap;html=1;fillColor=#FFFFFF;" vertex="1" parent="1">
          <mxGeometry x="1560" y="40" width="160" height="40" as="geometry" />
        </mxCell>
        <mxCell id="1TDYrzWobA5GGV8SR7Ec-73" value="&lt;div&gt;Status Table&lt;/div&gt;" style="rounded=0;whiteSpace=wrap;html=1;fillColor=#FFFFFF;" vertex="1" parent="1">
          <mxGeometry x="1240" y="40" width="160" height="40" as="geometry" />
        </mxCell>
        <mxCell id="1TDYrzWobA5GGV8SR7Ec-74" value="Out Come Status Table" style="rounded=0;whiteSpace=wrap;html=1;fillColor=#FFFFFF;" vertex="1" parent="1">
          <mxGeometry x="920" y="40" width="160" height="40" as="geometry" />
        </mxCell>
        <mxCell id="1TDYrzWobA5GGV8SR7Ec-75" value="Reported Location Table" style="rounded=0;whiteSpace=wrap;html=1;fillColor=#FFFFFF;" vertex="1" parent="1">
          <mxGeometry x="600" y="40" width="160" height="40" as="geometry" />
        </mxCell>
        <mxCell id="1TDYrzWobA5GGV8SR7Ec-80" value="Table" style="rounded=0;whiteSpace=wrap;html=1;fillColor=#FFFFFF;" vertex="1" parent="1">
          <mxGeometry x="40" y="-200" width="160" height="40" as="geometry" />
        </mxCell>
        <mxCell id="1TDYrzWobA5GGV8SR7Ec-81" value="Table" style="rounded=0;whiteSpace=wrap;html=1;fillColor=#FFFFFF;" vertex="1" parent="1">
          <mxGeometry x="200" y="-320" width="160" height="40" as="geometry" />
        </mxCell>
        <mxCell id="1TDYrzWobA5GGV8SR7Ec-82" value="Table" style="rounded=0;whiteSpace=wrap;html=1;fillColor=#FFFFFF;" vertex="1" parent="1">
          <mxGeometry x="200" y="-280" width="160" height="40" as="geometry" />
        </mxCell>
        <mxCell id="1TDYrzWobA5GGV8SR7Ec-83" value="Table" style="rounded=0;whiteSpace=wrap;html=1;fillColor=#FFFFFF;" vertex="1" parent="1">
          <mxGeometry x="200" y="-200" width="160" height="40" as="geometry" />
        </mxCell>
        <mxCell id="1TDYrzWobA5GGV8SR7Ec-84" value="Table" style="rounded=0;whiteSpace=wrap;html=1;fillColor=#FFFFFF;" vertex="1" parent="1">
          <mxGeometry x="200" y="-240" width="160" height="40" as="geometry" />
        </mxCell>
        <mxCell id="1TDYrzWobA5GGV8SR7Ec-85" value="Table" style="rounded=0;whiteSpace=wrap;html=1;fillColor=#FFFFFF;" vertex="1" parent="1">
          <mxGeometry x="-1640" y="40" width="160" height="40" as="geometry" />
        </mxCell>
        <mxCell id="1TDYrzWobA5GGV8SR7Ec-86" value="Table" style="rounded=0;whiteSpace=wrap;html=1;fillColor=#FFFFFF;" vertex="1" parent="1">
          <mxGeometry x="-1320" y="40" width="160" height="40" as="geometry" />
        </mxCell>
        <mxCell id="1TDYrzWobA5GGV8SR7Ec-87" value="Table" style="rounded=0;whiteSpace=wrap;html=1;fillColor=#FFFFFF;" vertex="1" parent="1">
          <mxGeometry x="-1000" y="40" width="160" height="40" as="geometry" />
        </mxCell>
        <mxCell id="1TDYrzWobA5GGV8SR7Ec-88" value="Table" style="rounded=0;whiteSpace=wrap;html=1;fillColor=#FFFFFF;" vertex="1" parent="1">
          <mxGeometry x="-680" y="40" width="160" height="40" as="geometry" />
        </mxCell>
        <mxCell id="1TDYrzWobA5GGV8SR7Ec-89" value="Table" style="rounded=0;whiteSpace=wrap;html=1;fillColor=#FFFFFF;" vertex="1" parent="1">
          <mxGeometry x="-360" y="40" width="160" height="40" as="geometry" />
        </mxCell>
        <mxCell id="1TDYrzWobA5GGV8SR7Ec-90" value="Table" style="rounded=0;whiteSpace=wrap;html=1;fillColor=#FFFFFF;" vertex="1" parent="1">
          <mxGeometry x="-40" y="40" width="160" height="40" as="geometry" />
        </mxCell>
        <mxCell id="1TDYrzWobA5GGV8SR7Ec-91" value="Animal Table" style="rounded=0;whiteSpace=wrap;html=1;fillColor=#FFFFFF;" vertex="1" parent="1">
          <mxGeometry x="2200" y="40" width="160" height="40" as="geometry" />
        </mxCell>
        <mxCell id="1TDYrzWobA5GGV8SR7Ec-92" value="Disaster Table" style="rounded=0;whiteSpace=wrap;html=1;fillColor=#FFFFFF;" vertex="1" parent="1">
          <mxGeometry x="1880" y="40" width="160" height="40" as="geometry" />
        </mxCell>
        <mxCell id="1TDYrzWobA5GGV8SR7Ec-93" value="" style="group" vertex="1" connectable="0" parent="1">
          <mxGeometry x="-210" y="-280" width="160" height="40" as="geometry" />
        </mxCell>
        <mxCell id="1TDYrzWobA5GGV8SR7Ec-94" value="" style="group" vertex="1" connectable="0" parent="1TDYrzWobA5GGV8SR7Ec-93">
          <mxGeometry width="160" height="40" as="geometry" />
        </mxCell>
        <mxCell id="1TDYrzWobA5GGV8SR7Ec-95" value="" style="rounded=0;whiteSpace=wrap;html=1;" vertex="1" parent="1TDYrzWobA5GGV8SR7Ec-94">
          <mxGeometry width="160" height="40" as="geometry" />
        </mxCell>
        <mxCell id="1TDYrzWobA5GGV8SR7Ec-96" value="" style="endArrow=none;html=1;entryX=0.25;entryY=0;entryDx=0;entryDy=0;exitX=0.25;exitY=1;exitDx=0;exitDy=0;" edge="1" parent="1TDYrzWobA5GGV8SR7Ec-94" source="1TDYrzWobA5GGV8SR7Ec-95" target="1TDYrzWobA5GGV8SR7Ec-95">
          <mxGeometry width="50" height="50" relative="1" as="geometry">
            <mxPoint x="26.666666666666664" y="40" as="sourcePoint" />
            <mxPoint x="26.666666666666664" as="targetPoint" />
          </mxGeometry>
        </mxCell>
        <mxCell id="1TDYrzWobA5GGV8SR7Ec-97" value="Text" style="text;html=1;strokeColor=none;fillColor=none;align=center;verticalAlign=middle;whiteSpace=wrap;rounded=0;" vertex="1" parent="1TDYrzWobA5GGV8SR7Ec-94">
          <mxGeometry width="40" height="40" as="geometry" />
        </mxCell>
        <mxCell id="1TDYrzWobA5GGV8SR7Ec-98" value="Text" style="text;html=1;strokeColor=none;fillColor=none;align=center;verticalAlign=middle;whiteSpace=wrap;rounded=0;" vertex="1" parent="1TDYrzWobA5GGV8SR7Ec-94">
          <mxGeometry x="40" width="120" height="40" as="geometry" />
        </mxCell>
        <mxCell id="1TDYrzWobA5GGV8SR7Ec-99" value="" style="group" vertex="1" connectable="0" parent="1">
          <mxGeometry x="-200" y="-270" width="160" height="40" as="geometry" />
        </mxCell>
        <mxCell id="1TDYrzWobA5GGV8SR7Ec-100" value="" style="group" vertex="1" connectable="0" parent="1TDYrzWobA5GGV8SR7Ec-99">
          <mxGeometry width="160" height="40" as="geometry" />
        </mxCell>
        <mxCell id="1TDYrzWobA5GGV8SR7Ec-101" value="" style="rounded=0;whiteSpace=wrap;html=1;" vertex="1" parent="1TDYrzWobA5GGV8SR7Ec-100">
          <mxGeometry width="160" height="40" as="geometry" />
        </mxCell>
        <mxCell id="1TDYrzWobA5GGV8SR7Ec-102" value="" style="endArrow=none;html=1;entryX=0.25;entryY=0;entryDx=0;entryDy=0;exitX=0.25;exitY=1;exitDx=0;exitDy=0;" edge="1" parent="1TDYrzWobA5GGV8SR7Ec-100" source="1TDYrzWobA5GGV8SR7Ec-101" target="1TDYrzWobA5GGV8SR7Ec-101">
          <mxGeometry width="50" height="50" relative="1" as="geometry">
            <mxPoint x="26.666666666666664" y="40" as="sourcePoint" />
            <mxPoint x="26.666666666666664" as="targetPoint" />
          </mxGeometry>
        </mxCell>
        <mxCell id="1TDYrzWobA5GGV8SR7Ec-103" value="Text" style="text;html=1;strokeColor=none;fillColor=none;align=center;verticalAlign=middle;whiteSpace=wrap;rounded=0;" vertex="1" parent="1TDYrzWobA5GGV8SR7Ec-100">
          <mxGeometry width="40" height="40" as="geometry" />
        </mxCell>
        <mxCell id="1TDYrzWobA5GGV8SR7Ec-104" value="Text" style="text;html=1;strokeColor=none;fillColor=none;align=center;verticalAlign=middle;whiteSpace=wrap;rounded=0;" vertex="1" parent="1TDYrzWobA5GGV8SR7Ec-100">
          <mxGeometry x="40" width="120" height="40" as="geometry" />
        </mxCell>
        <mxCell id="1TDYrzWobA5GGV8SR7Ec-105" value="" style="group" vertex="1" connectable="0" parent="1">
          <mxGeometry x="-190" y="-260" width="160" height="40" as="geometry" />
        </mxCell>
        <mxCell id="1TDYrzWobA5GGV8SR7Ec-106" value="" style="group" vertex="1" connectable="0" parent="1TDYrzWobA5GGV8SR7Ec-105">
          <mxGeometry width="160" height="40" as="geometry" />
        </mxCell>
        <mxCell id="1TDYrzWobA5GGV8SR7Ec-107" value="" style="rounded=0;whiteSpace=wrap;html=1;" vertex="1" parent="1TDYrzWobA5GGV8SR7Ec-106">
          <mxGeometry width="160" height="40" as="geometry" />
        </mxCell>
        <mxCell id="1TDYrzWobA5GGV8SR7Ec-108" value="" style="endArrow=none;html=1;entryX=0.25;entryY=0;entryDx=0;entryDy=0;exitX=0.25;exitY=1;exitDx=0;exitDy=0;" edge="1" parent="1TDYrzWobA5GGV8SR7Ec-106" source="1TDYrzWobA5GGV8SR7Ec-107" target="1TDYrzWobA5GGV8SR7Ec-107">
          <mxGeometry width="50" height="50" relative="1" as="geometry">
            <mxPoint x="26.666666666666664" y="40" as="sourcePoint" />
            <mxPoint x="26.666666666666664" as="targetPoint" />
          </mxGeometry>
        </mxCell>
        <mxCell id="1TDYrzWobA5GGV8SR7Ec-109" value="Text" style="text;html=1;strokeColor=none;fillColor=none;align=center;verticalAlign=middle;whiteSpace=wrap;rounded=0;" vertex="1" parent="1TDYrzWobA5GGV8SR7Ec-106">
          <mxGeometry width="40" height="40" as="geometry" />
        </mxCell>
        <mxCell id="1TDYrzWobA5GGV8SR7Ec-110" value="Text" style="text;html=1;strokeColor=none;fillColor=none;align=center;verticalAlign=middle;whiteSpace=wrap;rounded=0;" vertex="1" parent="1TDYrzWobA5GGV8SR7Ec-106">
          <mxGeometry x="40" width="120" height="40" as="geometry" />
        </mxCell>
        <mxCell id="1TDYrzWobA5GGV8SR7Ec-111" value="" style="group" vertex="1" connectable="0" parent="1">
          <mxGeometry x="-180" y="-250" width="160" height="40" as="geometry" />
        </mxCell>
        <mxCell id="1TDYrzWobA5GGV8SR7Ec-112" value="" style="group" vertex="1" connectable="0" parent="1TDYrzWobA5GGV8SR7Ec-111">
          <mxGeometry width="160" height="40" as="geometry" />
        </mxCell>
        <mxCell id="1TDYrzWobA5GGV8SR7Ec-113" value="" style="rounded=0;whiteSpace=wrap;html=1;" vertex="1" parent="1TDYrzWobA5GGV8SR7Ec-112">
          <mxGeometry width="160" height="40" as="geometry" />
        </mxCell>
        <mxCell id="1TDYrzWobA5GGV8SR7Ec-114" value="" style="endArrow=none;html=1;entryX=0.25;entryY=0;entryDx=0;entryDy=0;exitX=0.25;exitY=1;exitDx=0;exitDy=0;" edge="1" parent="1TDYrzWobA5GGV8SR7Ec-112" source="1TDYrzWobA5GGV8SR7Ec-113" target="1TDYrzWobA5GGV8SR7Ec-113">
          <mxGeometry width="50" height="50" relative="1" as="geometry">
            <mxPoint x="26.666666666666664" y="40" as="sourcePoint" />
            <mxPoint x="26.666666666666664" as="targetPoint" />
          </mxGeometry>
        </mxCell>
        <mxCell id="1TDYrzWobA5GGV8SR7Ec-115" value="Text" style="text;html=1;strokeColor=none;fillColor=none;align=center;verticalAlign=middle;whiteSpace=wrap;rounded=0;" vertex="1" parent="1TDYrzWobA5GGV8SR7Ec-112">
          <mxGeometry width="40" height="40" as="geometry" />
        </mxCell>
        <mxCell id="1TDYrzWobA5GGV8SR7Ec-116" value="Text" style="text;html=1;strokeColor=none;fillColor=none;align=center;verticalAlign=middle;whiteSpace=wrap;rounded=0;" vertex="1" parent="1TDYrzWobA5GGV8SR7Ec-112">
          <mxGeometry x="40" width="120" height="40" as="geometry" />
        </mxCell>
        <mxCell id="1TDYrzWobA5GGV8SR7Ec-117" value="" style="group" vertex="1" connectable="0" parent="1">
          <mxGeometry x="-170" y="-240" width="160" height="40" as="geometry" />
        </mxCell>
        <mxCell id="1TDYrzWobA5GGV8SR7Ec-118" value="" style="group" vertex="1" connectable="0" parent="1TDYrzWobA5GGV8SR7Ec-117">
          <mxGeometry width="160" height="40" as="geometry" />
        </mxCell>
        <mxCell id="1TDYrzWobA5GGV8SR7Ec-119" value="" style="rounded=0;whiteSpace=wrap;html=1;" vertex="1" parent="1TDYrzWobA5GGV8SR7Ec-118">
          <mxGeometry width="160" height="40" as="geometry" />
        </mxCell>
        <mxCell id="1TDYrzWobA5GGV8SR7Ec-120" value="" style="endArrow=none;html=1;entryX=0.25;entryY=0;entryDx=0;entryDy=0;exitX=0.25;exitY=1;exitDx=0;exitDy=0;" edge="1" parent="1TDYrzWobA5GGV8SR7Ec-118" source="1TDYrzWobA5GGV8SR7Ec-119" target="1TDYrzWobA5GGV8SR7Ec-119">
          <mxGeometry width="50" height="50" relative="1" as="geometry">
            <mxPoint x="26.666666666666664" y="40" as="sourcePoint" />
            <mxPoint x="26.666666666666664" as="targetPoint" />
          </mxGeometry>
        </mxCell>
        <mxCell id="1TDYrzWobA5GGV8SR7Ec-121" value="Text" style="text;html=1;strokeColor=none;fillColor=none;align=center;verticalAlign=middle;whiteSpace=wrap;rounded=0;" vertex="1" parent="1TDYrzWobA5GGV8SR7Ec-118">
          <mxGeometry width="40" height="40" as="geometry" />
        </mxCell>
        <mxCell id="1TDYrzWobA5GGV8SR7Ec-122" value="Text" style="text;html=1;strokeColor=none;fillColor=none;align=center;verticalAlign=middle;whiteSpace=wrap;rounded=0;" vertex="1" parent="1TDYrzWobA5GGV8SR7Ec-118">
          <mxGeometry x="40" width="120" height="40" as="geometry" />
        </mxCell>
        <mxCell id="1TDYrzWobA5GGV8SR7Ec-123" value="" style="group" vertex="1" connectable="0" parent="1">
          <mxGeometry x="280" y="960" width="160" height="40" as="geometry" />
        </mxCell>
        <mxCell id="1TDYrzWobA5GGV8SR7Ec-124" value="" style="group" vertex="1" connectable="0" parent="1TDYrzWobA5GGV8SR7Ec-123">
          <mxGeometry width="160" height="40" as="geometry" />
        </mxCell>
        <mxCell id="1TDYrzWobA5GGV8SR7Ec-125" value="" style="rounded=0;whiteSpace=wrap;html=1;" vertex="1" parent="1TDYrzWobA5GGV8SR7Ec-124">
          <mxGeometry width="160" height="40" as="geometry" />
        </mxCell>
        <mxCell id="1TDYrzWobA5GGV8SR7Ec-126" value="" style="endArrow=none;html=1;entryX=0.25;entryY=0;entryDx=0;entryDy=0;exitX=0.25;exitY=1;exitDx=0;exitDy=0;" edge="1" parent="1TDYrzWobA5GGV8SR7Ec-124" source="1TDYrzWobA5GGV8SR7Ec-125" target="1TDYrzWobA5GGV8SR7Ec-125">
          <mxGeometry width="50" height="50" relative="1" as="geometry">
            <mxPoint x="26.666666666666664" y="40" as="sourcePoint" />
            <mxPoint x="26.666666666666664" as="targetPoint" />
          </mxGeometry>
        </mxCell>
        <mxCell id="1TDYrzWobA5GGV8SR7Ec-127" value="Text" style="text;html=1;strokeColor=none;fillColor=none;align=center;verticalAlign=middle;whiteSpace=wrap;rounded=0;" vertex="1" parent="1TDYrzWobA5GGV8SR7Ec-124">
          <mxGeometry width="40" height="40" as="geometry" />
        </mxCell>
        <mxCell id="1TDYrzWobA5GGV8SR7Ec-128" value="Text" style="text;html=1;strokeColor=none;fillColor=none;align=center;verticalAlign=middle;whiteSpace=wrap;rounded=0;" vertex="1" parent="1TDYrzWobA5GGV8SR7Ec-124">
          <mxGeometry x="40" width="120" height="40" as="geometry" />
        </mxCell>
        <mxCell id="1TDYrzWobA5GGV8SR7Ec-130" style="edgeStyle=orthogonalEdgeStyle;rounded=0;orthogonalLoop=1;jettySize=auto;html=1;exitX=1;exitY=0.5;exitDx=0;exitDy=0;entryX=0.5;entryY=0;entryDx=0;entryDy=0;" edge="1" parent="1" source="yTg_aaxLceIdwKCnXvtw-31" target="1TDYrzWobA5GGV8SR7Ec-91">
          <mxGeometry relative="1" as="geometry">
            <Array as="points">
              <mxPoint x="450" y="140" />
              <mxPoint x="450" y="-40" />
              <mxPoint x="2280" y="-40" />
            </Array>
          </mxGeometry>
        </mxCell>
        <mxCell id="1TDYrzWobA5GGV8SR7Ec-131" style="edgeStyle=orthogonalEdgeStyle;rounded=0;orthogonalLoop=1;jettySize=auto;html=1;exitX=1;exitY=0.5;exitDx=0;exitDy=0;entryX=0.5;entryY=0;entryDx=0;entryDy=0;" edge="1" parent="1" source="yTg_aaxLceIdwKCnXvtw-36" target="1TDYrzWobA5GGV8SR7Ec-92">
          <mxGeometry relative="1" as="geometry">
            <Array as="points">
              <mxPoint x="460" y="180" />
              <mxPoint x="460" y="-30" />
              <mxPoint x="1960" y="-30" />
            </Array>
          </mxGeometry>
        </mxCell>
        <mxCell id="1TDYrzWobA5GGV8SR7Ec-132" style="edgeStyle=orthogonalEdgeStyle;rounded=0;orthogonalLoop=1;jettySize=auto;html=1;exitX=1;exitY=0.5;exitDx=0;exitDy=0;entryX=0.5;entryY=0;entryDx=0;entryDy=0;" edge="1" parent="1" source="yTg_aaxLceIdwKCnXvtw-61" target="1TDYrzWobA5GGV8SR7Ec-72">
          <mxGeometry relative="1" as="geometry">
            <Array as="points">
              <mxPoint x="470" y="260" />
              <mxPoint x="470" y="-20" />
              <mxPoint x="1640" y="-20" />
            </Array>
          </mxGeometry>
        </mxCell>
        <mxCell id="1TDYrzWobA5GGV8SR7Ec-133" style="edgeStyle=orthogonalEdgeStyle;rounded=0;orthogonalLoop=1;jettySize=auto;html=1;exitX=1;exitY=0.5;exitDx=0;exitDy=0;entryX=0.5;entryY=0;entryDx=0;entryDy=0;" edge="1" parent="1" source="yTg_aaxLceIdwKCnXvtw-56" target="1TDYrzWobA5GGV8SR7Ec-73">
          <mxGeometry relative="1" as="geometry">
            <Array as="points">
              <mxPoint x="480" y="300" />
              <mxPoint x="480" y="-10" />
              <mxPoint x="1320" y="-10" />
            </Array>
          </mxGeometry>
        </mxCell>
        <mxCell id="1TDYrzWobA5GGV8SR7Ec-134" style="edgeStyle=orthogonalEdgeStyle;rounded=0;orthogonalLoop=1;jettySize=auto;html=1;exitX=1;exitY=0.5;exitDx=0;exitDy=0;entryX=0.5;entryY=0;entryDx=0;entryDy=0;" edge="1" parent="1" source="yTg_aaxLceIdwKCnXvtw-51" target="1TDYrzWobA5GGV8SR7Ec-74">
          <mxGeometry relative="1" as="geometry">
            <Array as="points">
              <mxPoint x="490" y="340" />
              <mxPoint x="490" />
              <mxPoint x="1000" />
            </Array>
          </mxGeometry>
        </mxCell>
        <mxCell id="1TDYrzWobA5GGV8SR7Ec-135" style="edgeStyle=orthogonalEdgeStyle;rounded=0;orthogonalLoop=1;jettySize=auto;html=1;exitX=1;exitY=0.5;exitDx=0;exitDy=0;entryX=0.5;entryY=0;entryDx=0;entryDy=0;" edge="1" parent="1" source="1dCuARmQQFrfibx1cBCv-98" target="1TDYrzWobA5GGV8SR7Ec-75">
          <mxGeometry relative="1" as="geometry">
            <Array as="points">
              <mxPoint x="500" y="460" />
              <mxPoint x="500" y="10" />
              <mxPoint x="680" y="10" />
            </Array>
          </mxGeometry>
        </mxCell>
        <mxCell id="1TDYrzWobA5GGV8SR7Ec-136" style="edgeStyle=orthogonalEdgeStyle;rounded=0;orthogonalLoop=1;jettySize=auto;html=1;exitX=0;exitY=0.5;exitDx=0;exitDy=0;entryX=0.5;entryY=0;entryDx=0;entryDy=0;" edge="1" parent="1" source="1dCuARmQQFrfibx1cBCv-91" target="1TDYrzWobA5GGV8SR7Ec-85">
          <mxGeometry relative="1" as="geometry">
            <Array as="points">
              <mxPoint x="270" y="500" />
              <mxPoint x="270" y="-40" />
              <mxPoint x="-1560" y="-40" />
            </Array>
          </mxGeometry>
        </mxCell>
        <mxCell id="1TDYrzWobA5GGV8SR7Ec-137" style="edgeStyle=orthogonalEdgeStyle;rounded=0;orthogonalLoop=1;jettySize=auto;html=1;exitX=0;exitY=0.5;exitDx=0;exitDy=0;entryX=0.5;entryY=0;entryDx=0;entryDy=0;" edge="1" parent="1" source="1dCuARmQQFrfibx1cBCv-85" target="1TDYrzWobA5GGV8SR7Ec-86">
          <mxGeometry relative="1" as="geometry">
            <Array as="points">
              <mxPoint x="260" y="540" />
              <mxPoint x="260" y="-30" />
              <mxPoint x="-1240" y="-30" />
            </Array>
          </mxGeometry>
        </mxCell>
        <mxCell id="1TDYrzWobA5GGV8SR7Ec-138" value="" style="group" vertex="1" connectable="0" parent="1">
          <mxGeometry x="280" y="40" width="160" height="920" as="geometry" />
        </mxCell>
        <mxCell id="yTg_aaxLceIdwKCnXvtw-27" value="" style="group" parent="1TDYrzWobA5GGV8SR7Ec-138" vertex="1" connectable="0">
          <mxGeometry y="80" width="160" height="40" as="geometry" />
        </mxCell>
        <mxCell id="yTg_aaxLceIdwKCnXvtw-28" value="" style="rounded=0;whiteSpace=wrap;html=1;" parent="yTg_aaxLceIdwKCnXvtw-27" vertex="1">
          <mxGeometry width="160" height="40" as="geometry" />
        </mxCell>
        <mxCell id="yTg_aaxLceIdwKCnXvtw-31" value="Animal_ID" style="text;html=1;strokeColor=none;fillColor=none;align=center;verticalAlign=middle;whiteSpace=wrap;rounded=0;" parent="yTg_aaxLceIdwKCnXvtw-27" vertex="1">
          <mxGeometry x="40" width="120" height="40" as="geometry" />
        </mxCell>
        <mxCell id="yTg_aaxLceIdwKCnXvtw-30" value="Key" style="text;html=1;strokeColor=none;fillColor=none;align=center;verticalAlign=middle;whiteSpace=wrap;rounded=0;" parent="yTg_aaxLceIdwKCnXvtw-27" vertex="1">
          <mxGeometry width="40" height="40" as="geometry" />
        </mxCell>
        <mxCell id="yTg_aaxLceIdwKCnXvtw-37" value="" style="group" parent="1TDYrzWobA5GGV8SR7Ec-138" vertex="1" connectable="0">
          <mxGeometry y="160" width="160" height="40" as="geometry" />
        </mxCell>
        <mxCell id="yTg_aaxLceIdwKCnXvtw-38" value="" style="rounded=0;whiteSpace=wrap;html=1;" parent="yTg_aaxLceIdwKCnXvtw-37" vertex="1">
          <mxGeometry width="160" height="40" as="geometry" />
        </mxCell>
        <mxCell id="yTg_aaxLceIdwKCnXvtw-39" value="" style="endArrow=none;html=1;entryX=0.25;entryY=1;entryDx=0;entryDy=0;exitX=0.25;exitY=1;exitDx=0;exitDy=0;" parent="yTg_aaxLceIdwKCnXvtw-37" source="yTg_aaxLceIdwKCnXvtw-38" target="yTg_aaxLceIdwKCnXvtw-33" edge="1">
          <mxGeometry width="50" height="50" relative="1" as="geometry">
            <mxPoint x="30" y="40" as="sourcePoint" />
            <mxPoint x="30" as="targetPoint" />
          </mxGeometry>
        </mxCell>
        <mxCell id="yTg_aaxLceIdwKCnXvtw-40" value="Text" style="text;html=1;strokeColor=none;fillColor=none;align=center;verticalAlign=middle;whiteSpace=wrap;rounded=0;" parent="yTg_aaxLceIdwKCnXvtw-37" vertex="1">
          <mxGeometry width="40" height="40" as="geometry" />
        </mxCell>
        <mxCell id="yTg_aaxLceIdwKCnXvtw-41" value="Images" style="text;html=1;strokeColor=none;fillColor=none;align=center;verticalAlign=middle;whiteSpace=wrap;rounded=0;" parent="yTg_aaxLceIdwKCnXvtw-37" vertex="1">
          <mxGeometry x="40" width="120" height="40" as="geometry" />
        </mxCell>
        <mxCell id="yTg_aaxLceIdwKCnXvtw-32" value="" style="group" parent="yTg_aaxLceIdwKCnXvtw-37" vertex="1" connectable="0">
          <mxGeometry y="-40" width="160" height="40" as="geometry" />
        </mxCell>
        <mxCell id="yTg_aaxLceIdwKCnXvtw-33" value="" style="rounded=0;whiteSpace=wrap;html=1;" parent="yTg_aaxLceIdwKCnXvtw-32" vertex="1">
          <mxGeometry width="160" height="40" as="geometry" />
        </mxCell>
        <mxCell id="yTg_aaxLceIdwKCnXvtw-34" value="" style="endArrow=none;html=1;entryX=0.25;entryY=0;entryDx=0;entryDy=0;exitX=0.25;exitY=1;exitDx=0;exitDy=0;" parent="yTg_aaxLceIdwKCnXvtw-32" source="yTg_aaxLceIdwKCnXvtw-33" target="yTg_aaxLceIdwKCnXvtw-33" edge="1">
          <mxGeometry width="50" height="50" relative="1" as="geometry">
            <mxPoint x="30" y="40" as="sourcePoint" />
            <mxPoint x="30" as="targetPoint" />
          </mxGeometry>
        </mxCell>
        <mxCell id="yTg_aaxLceIdwKCnXvtw-35" value="Key" style="text;html=1;strokeColor=none;fillColor=none;align=center;verticalAlign=middle;whiteSpace=wrap;rounded=0;" parent="yTg_aaxLceIdwKCnXvtw-32" vertex="1">
          <mxGeometry width="40" height="40" as="geometry" />
        </mxCell>
        <mxCell id="yTg_aaxLceIdwKCnXvtw-36" value="Disaster_ID" style="text;html=1;strokeColor=none;fillColor=none;align=center;verticalAlign=middle;whiteSpace=wrap;rounded=0;" parent="yTg_aaxLceIdwKCnXvtw-32" vertex="1">
          <mxGeometry x="40" width="120" height="40" as="geometry" />
        </mxCell>
        <mxCell id="yTg_aaxLceIdwKCnXvtw-47" value="" style="group" parent="1TDYrzWobA5GGV8SR7Ec-138" vertex="1" connectable="0">
          <mxGeometry y="280" width="160" height="40" as="geometry" />
        </mxCell>
        <mxCell id="yTg_aaxLceIdwKCnXvtw-48" value="" style="rounded=0;whiteSpace=wrap;html=1;" parent="yTg_aaxLceIdwKCnXvtw-47" vertex="1">
          <mxGeometry width="160" height="40" as="geometry" />
        </mxCell>
        <mxCell id="yTg_aaxLceIdwKCnXvtw-51" value="Out Come Status" style="text;html=1;strokeColor=none;fillColor=none;align=center;verticalAlign=middle;whiteSpace=wrap;rounded=0;" parent="yTg_aaxLceIdwKCnXvtw-47" vertex="1">
          <mxGeometry x="40" width="120" height="40" as="geometry" />
        </mxCell>
        <mxCell id="yTg_aaxLceIdwKCnXvtw-50" value="Key" style="text;html=1;strokeColor=none;fillColor=none;align=center;verticalAlign=middle;whiteSpace=wrap;rounded=0;" parent="yTg_aaxLceIdwKCnXvtw-47" vertex="1">
          <mxGeometry width="40" height="40" as="geometry" />
        </mxCell>
        <mxCell id="yTg_aaxLceIdwKCnXvtw-52" value="" style="group" parent="1TDYrzWobA5GGV8SR7Ec-138" vertex="1" connectable="0">
          <mxGeometry y="240" width="160" height="40" as="geometry" />
        </mxCell>
        <mxCell id="yTg_aaxLceIdwKCnXvtw-53" value="" style="rounded=0;whiteSpace=wrap;html=1;" parent="yTg_aaxLceIdwKCnXvtw-52" vertex="1">
          <mxGeometry width="160" height="40" as="geometry" />
        </mxCell>
        <mxCell id="yTg_aaxLceIdwKCnXvtw-56" value="Status" style="text;html=1;strokeColor=none;fillColor=none;align=center;verticalAlign=middle;whiteSpace=wrap;rounded=0;" parent="yTg_aaxLceIdwKCnXvtw-52" vertex="1">
          <mxGeometry x="40" width="120" height="40" as="geometry" />
        </mxCell>
        <mxCell id="yTg_aaxLceIdwKCnXvtw-55" value="Key" style="text;html=1;strokeColor=none;fillColor=none;align=center;verticalAlign=middle;whiteSpace=wrap;rounded=0;" parent="yTg_aaxLceIdwKCnXvtw-52" vertex="1">
          <mxGeometry width="40" height="40" as="geometry" />
        </mxCell>
        <mxCell id="yTg_aaxLceIdwKCnXvtw-57" value="" style="group" parent="1TDYrzWobA5GGV8SR7Ec-138" vertex="1" connectable="0">
          <mxGeometry y="200" width="160" height="40" as="geometry" />
        </mxCell>
        <mxCell id="yTg_aaxLceIdwKCnXvtw-58" value="" style="rounded=0;whiteSpace=wrap;html=1;" parent="yTg_aaxLceIdwKCnXvtw-57" vertex="1">
          <mxGeometry width="160" height="40" as="geometry" />
        </mxCell>
        <mxCell id="yTg_aaxLceIdwKCnXvtw-59" value="" style="endArrow=none;html=1;entryX=0.25;entryY=0;entryDx=0;entryDy=0;exitX=0.25;exitY=1;exitDx=0;exitDy=0;" parent="yTg_aaxLceIdwKCnXvtw-57" source="yTg_aaxLceIdwKCnXvtw-58" target="yTg_aaxLceIdwKCnXvtw-58" edge="1">
          <mxGeometry width="50" height="50" relative="1" as="geometry">
            <mxPoint x="30" y="40" as="sourcePoint" />
            <mxPoint x="30" as="targetPoint" />
          </mxGeometry>
        </mxCell>
        <mxCell id="yTg_aaxLceIdwKCnXvtw-61" value="Date Reported" style="text;html=1;strokeColor=none;fillColor=none;align=center;verticalAlign=middle;whiteSpace=wrap;rounded=0;" parent="yTg_aaxLceIdwKCnXvtw-57" vertex="1">
          <mxGeometry x="40" width="120" height="40" as="geometry" />
        </mxCell>
        <mxCell id="yTg_aaxLceIdwKCnXvtw-60" value="Key" style="text;html=1;strokeColor=none;fillColor=none;align=center;verticalAlign=middle;whiteSpace=wrap;rounded=0;" parent="yTg_aaxLceIdwKCnXvtw-57" vertex="1">
          <mxGeometry width="40" height="40" as="geometry" />
        </mxCell>
        <mxCell id="yTg_aaxLceIdwKCnXvtw-87" value="" style="group" parent="1TDYrzWobA5GGV8SR7Ec-138" vertex="1" connectable="0">
          <mxGeometry y="40" width="160" height="40" as="geometry" />
        </mxCell>
        <mxCell id="yTg_aaxLceIdwKCnXvtw-88" value="" style="rounded=0;whiteSpace=wrap;html=1;" parent="yTg_aaxLceIdwKCnXvtw-87" vertex="1">
          <mxGeometry width="160" height="40" as="geometry" />
        </mxCell>
        <mxCell id="yTg_aaxLceIdwKCnXvtw-90" value="INT" style="text;html=1;strokeColor=none;fillColor=none;align=center;verticalAlign=middle;whiteSpace=wrap;rounded=0;" parent="yTg_aaxLceIdwKCnXvtw-87" vertex="1">
          <mxGeometry width="40" height="40" as="geometry" />
        </mxCell>
        <mxCell id="yTg_aaxLceIdwKCnXvtw-91" value="Key" style="text;html=1;strokeColor=none;fillColor=none;align=center;verticalAlign=middle;whiteSpace=wrap;rounded=0;" parent="yTg_aaxLceIdwKCnXvtw-87" vertex="1">
          <mxGeometry x="40" width="120" height="40" as="geometry" />
        </mxCell>
        <mxCell id="yTg_aaxLceIdwKCnXvtw-92" value="" style="group" parent="1TDYrzWobA5GGV8SR7Ec-138" vertex="1" connectable="0">
          <mxGeometry y="320" width="160" height="40" as="geometry" />
        </mxCell>
        <mxCell id="yTg_aaxLceIdwKCnXvtw-93" value="" style="rounded=0;whiteSpace=wrap;html=1;" parent="yTg_aaxLceIdwKCnXvtw-92" vertex="1">
          <mxGeometry width="160" height="40" as="geometry" />
        </mxCell>
        <mxCell id="yTg_aaxLceIdwKCnXvtw-94" value="" style="endArrow=none;html=1;entryX=0.25;entryY=0;entryDx=0;entryDy=0;exitX=0.25;exitY=1;exitDx=0;exitDy=0;" parent="yTg_aaxLceIdwKCnXvtw-92" source="yTg_aaxLceIdwKCnXvtw-93" target="yTg_aaxLceIdwKCnXvtw-93" edge="1">
          <mxGeometry width="50" height="50" relative="1" as="geometry">
            <mxPoint x="30" y="40" as="sourcePoint" />
            <mxPoint x="30" as="targetPoint" />
          </mxGeometry>
        </mxCell>
        <mxCell id="yTg_aaxLceIdwKCnXvtw-96" value="Out Come Info" style="text;html=1;strokeColor=none;fillColor=none;align=center;verticalAlign=middle;whiteSpace=wrap;rounded=0;" parent="yTg_aaxLceIdwKCnXvtw-92" vertex="1">
          <mxGeometry x="40" width="120" height="40" as="geometry" />
        </mxCell>
        <mxCell id="yTg_aaxLceIdwKCnXvtw-95" value="Text" style="text;html=1;strokeColor=none;fillColor=none;align=center;verticalAlign=middle;whiteSpace=wrap;rounded=0;" parent="yTg_aaxLceIdwKCnXvtw-92" vertex="1">
          <mxGeometry width="40" height="40" as="geometry" />
        </mxCell>
        <mxCell id="1dCuARmQQFrfibx1cBCv-3" value="&lt;div&gt;Pet Table&lt;/div&gt;" style="rounded=0;whiteSpace=wrap;html=1;fillColor=#FFFFFF;" parent="1TDYrzWobA5GGV8SR7Ec-138" vertex="1">
          <mxGeometry width="160" height="40" as="geometry" />
        </mxCell>
        <mxCell id="yTg_aaxLceIdwKCnXvtw-89" value="" style="endArrow=none;html=1;entryX=0.25;entryY=1;entryDx=0;entryDy=0;exitX=0.25;exitY=1;exitDx=0;exitDy=0;" parent="1TDYrzWobA5GGV8SR7Ec-138" source="yTg_aaxLceIdwKCnXvtw-88" target="1dCuARmQQFrfibx1cBCv-3" edge="1">
          <mxGeometry width="50" height="50" relative="1" as="geometry">
            <mxPoint x="30" y="80" as="sourcePoint" />
            <mxPoint x="30" y="40" as="targetPoint" />
          </mxGeometry>
        </mxCell>
        <mxCell id="yTg_aaxLceIdwKCnXvtw-29" value="" style="endArrow=none;html=1;entryX=0.25;entryY=1;entryDx=0;entryDy=0;exitX=0.25;exitY=1;exitDx=0;exitDy=0;" parent="1TDYrzWobA5GGV8SR7Ec-138" source="yTg_aaxLceIdwKCnXvtw-28" target="yTg_aaxLceIdwKCnXvtw-88" edge="1">
          <mxGeometry width="50" height="50" relative="1" as="geometry">
            <mxPoint x="30" y="120" as="sourcePoint" />
            <mxPoint x="30" y="80" as="targetPoint" />
          </mxGeometry>
        </mxCell>
        <mxCell id="yTg_aaxLceIdwKCnXvtw-54" value="" style="endArrow=none;html=1;entryX=0.25;entryY=1;entryDx=0;entryDy=0;exitX=0.25;exitY=1;exitDx=0;exitDy=0;" parent="1TDYrzWobA5GGV8SR7Ec-138" source="yTg_aaxLceIdwKCnXvtw-53" target="yTg_aaxLceIdwKCnXvtw-58" edge="1">
          <mxGeometry width="50" height="50" relative="1" as="geometry">
            <mxPoint x="30" y="280" as="sourcePoint" />
            <mxPoint x="30" y="240" as="targetPoint" />
          </mxGeometry>
        </mxCell>
        <mxCell id="yTg_aaxLceIdwKCnXvtw-49" value="" style="endArrow=none;html=1;entryX=0.25;entryY=1;entryDx=0;entryDy=0;exitX=0.25;exitY=0;exitDx=0;exitDy=0;" parent="1TDYrzWobA5GGV8SR7Ec-138" source="yTg_aaxLceIdwKCnXvtw-93" target="yTg_aaxLceIdwKCnXvtw-53" edge="1">
          <mxGeometry width="50" height="50" relative="1" as="geometry">
            <mxPoint x="30" y="320" as="sourcePoint" />
            <mxPoint x="30" y="280" as="targetPoint" />
          </mxGeometry>
        </mxCell>
        <mxCell id="1dCuARmQQFrfibx1cBCv-15" value="" style="group" parent="1TDYrzWobA5GGV8SR7Ec-138" vertex="1" connectable="0">
          <mxGeometry y="680" width="160" height="40" as="geometry" />
        </mxCell>
        <mxCell id="1dCuARmQQFrfibx1cBCv-16" value="" style="group" parent="1dCuARmQQFrfibx1cBCv-15" vertex="1" connectable="0">
          <mxGeometry width="160" height="40" as="geometry" />
        </mxCell>
        <mxCell id="1dCuARmQQFrfibx1cBCv-17" value="" style="rounded=0;whiteSpace=wrap;html=1;" parent="1dCuARmQQFrfibx1cBCv-16" vertex="1">
          <mxGeometry width="160" height="40" as="geometry" />
        </mxCell>
        <mxCell id="1dCuARmQQFrfibx1cBCv-18" value="" style="endArrow=none;html=1;entryX=0.25;entryY=0;entryDx=0;entryDy=0;exitX=0.25;exitY=1;exitDx=0;exitDy=0;" parent="1dCuARmQQFrfibx1cBCv-16" source="1dCuARmQQFrfibx1cBCv-17" target="1dCuARmQQFrfibx1cBCv-17" edge="1">
          <mxGeometry width="50" height="50" relative="1" as="geometry">
            <mxPoint x="26.666666666666664" y="40" as="sourcePoint" />
            <mxPoint x="26.666666666666664" as="targetPoint" />
          </mxGeometry>
        </mxCell>
        <mxCell id="1dCuARmQQFrfibx1cBCv-19" value="Key" style="text;html=1;strokeColor=none;fillColor=none;align=center;verticalAlign=middle;whiteSpace=wrap;rounded=0;" parent="1dCuARmQQFrfibx1cBCv-16" vertex="1">
          <mxGeometry width="40" height="40" as="geometry" />
        </mxCell>
        <mxCell id="1dCuARmQQFrfibx1cBCv-20" value="Foster Contract" style="text;html=1;strokeColor=none;fillColor=none;align=center;verticalAlign=middle;whiteSpace=wrap;rounded=0;" parent="1dCuARmQQFrfibx1cBCv-16" vertex="1">
          <mxGeometry x="40" width="120" height="40" as="geometry" />
        </mxCell>
        <mxCell id="1dCuARmQQFrfibx1cBCv-57" value="" style="group" parent="1TDYrzWobA5GGV8SR7Ec-138" vertex="1" connectable="0">
          <mxGeometry y="640" width="160" height="40" as="geometry" />
        </mxCell>
        <mxCell id="1dCuARmQQFrfibx1cBCv-58" value="" style="group" parent="1dCuARmQQFrfibx1cBCv-57" vertex="1" connectable="0">
          <mxGeometry width="160" height="40" as="geometry" />
        </mxCell>
        <mxCell id="1dCuARmQQFrfibx1cBCv-59" value="" style="rounded=0;whiteSpace=wrap;html=1;" parent="1dCuARmQQFrfibx1cBCv-58" vertex="1">
          <mxGeometry width="160" height="40" as="geometry" />
        </mxCell>
        <mxCell id="1dCuARmQQFrfibx1cBCv-60" value="" style="endArrow=none;html=1;entryX=0.25;entryY=0;entryDx=0;entryDy=0;exitX=0.25;exitY=1;exitDx=0;exitDy=0;" parent="1dCuARmQQFrfibx1cBCv-58" source="1dCuARmQQFrfibx1cBCv-59" target="1dCuARmQQFrfibx1cBCv-59" edge="1">
          <mxGeometry width="50" height="50" relative="1" as="geometry">
            <mxPoint x="26.666666666666664" y="40" as="sourcePoint" />
            <mxPoint x="26.666666666666664" as="targetPoint" />
          </mxGeometry>
        </mxCell>
        <mxCell id="1dCuARmQQFrfibx1cBCv-61" value="N/A" style="text;html=1;strokeColor=none;fillColor=none;align=center;verticalAlign=middle;whiteSpace=wrap;rounded=0;" parent="1dCuARmQQFrfibx1cBCv-58" vertex="1">
          <mxGeometry width="40" height="40" as="geometry" />
        </mxCell>
        <mxCell id="1dCuARmQQFrfibx1cBCv-62" value="Taken to vet" style="text;html=1;strokeColor=none;fillColor=none;align=center;verticalAlign=middle;whiteSpace=wrap;rounded=0;" parent="1dCuARmQQFrfibx1cBCv-58" vertex="1">
          <mxGeometry x="40" width="120" height="40" as="geometry" />
        </mxCell>
        <mxCell id="1dCuARmQQFrfibx1cBCv-63" value="" style="group" parent="1TDYrzWobA5GGV8SR7Ec-138" vertex="1" connectable="0">
          <mxGeometry y="600" width="160" height="40" as="geometry" />
        </mxCell>
        <mxCell id="1dCuARmQQFrfibx1cBCv-64" value="" style="group" parent="1dCuARmQQFrfibx1cBCv-63" vertex="1" connectable="0">
          <mxGeometry width="160" height="40" as="geometry" />
        </mxCell>
        <mxCell id="1dCuARmQQFrfibx1cBCv-65" value="" style="rounded=0;whiteSpace=wrap;html=1;" parent="1dCuARmQQFrfibx1cBCv-64" vertex="1">
          <mxGeometry width="160" height="40" as="geometry" />
        </mxCell>
        <mxCell id="1dCuARmQQFrfibx1cBCv-66" value="" style="endArrow=none;html=1;entryX=0.25;entryY=0;entryDx=0;entryDy=0;exitX=0.25;exitY=1;exitDx=0;exitDy=0;" parent="1dCuARmQQFrfibx1cBCv-64" source="1dCuARmQQFrfibx1cBCv-65" target="1dCuARmQQFrfibx1cBCv-65" edge="1">
          <mxGeometry width="50" height="50" relative="1" as="geometry">
            <mxPoint x="26.666666666666664" y="40" as="sourcePoint" />
            <mxPoint x="26.666666666666664" as="targetPoint" />
          </mxGeometry>
        </mxCell>
        <mxCell id="1dCuARmQQFrfibx1cBCv-67" value="Text" style="text;html=1;strokeColor=none;fillColor=none;align=center;verticalAlign=middle;whiteSpace=wrap;rounded=0;" parent="1dCuARmQQFrfibx1cBCv-64" vertex="1">
          <mxGeometry width="40" height="40" as="geometry" />
        </mxCell>
        <mxCell id="1dCuARmQQFrfibx1cBCv-68" value="Owner request for field crew" style="text;html=1;strokeColor=none;fillColor=none;align=center;verticalAlign=middle;whiteSpace=wrap;rounded=0;" parent="1dCuARmQQFrfibx1cBCv-64" vertex="1">
          <mxGeometry x="40" width="120" height="40" as="geometry" />
        </mxCell>
        <mxCell id="1dCuARmQQFrfibx1cBCv-69" value="" style="group" parent="1TDYrzWobA5GGV8SR7Ec-138" vertex="1" connectable="0">
          <mxGeometry y="560" width="160" height="40" as="geometry" />
        </mxCell>
        <mxCell id="1dCuARmQQFrfibx1cBCv-70" value="" style="group" parent="1dCuARmQQFrfibx1cBCv-69" vertex="1" connectable="0">
          <mxGeometry width="160" height="40" as="geometry" />
        </mxCell>
        <mxCell id="1dCuARmQQFrfibx1cBCv-71" value="" style="rounded=0;whiteSpace=wrap;html=1;" parent="1dCuARmQQFrfibx1cBCv-70" vertex="1">
          <mxGeometry width="160" height="40" as="geometry" />
        </mxCell>
        <mxCell id="1dCuARmQQFrfibx1cBCv-72" value="" style="endArrow=none;html=1;entryX=0.25;entryY=0;entryDx=0;entryDy=0;exitX=0.25;exitY=1;exitDx=0;exitDy=0;" parent="1dCuARmQQFrfibx1cBCv-70" source="1dCuARmQQFrfibx1cBCv-71" target="1dCuARmQQFrfibx1cBCv-71" edge="1">
          <mxGeometry width="50" height="50" relative="1" as="geometry">
            <mxPoint x="26.666666666666664" y="40" as="sourcePoint" />
            <mxPoint x="26.666666666666664" as="targetPoint" />
          </mxGeometry>
        </mxCell>
        <mxCell id="1dCuARmQQFrfibx1cBCv-73" value="&lt;div&gt;String&lt;/div&gt;" style="text;html=1;strokeColor=none;fillColor=none;align=center;verticalAlign=middle;whiteSpace=wrap;rounded=0;" parent="1dCuARmQQFrfibx1cBCv-70" vertex="1">
          <mxGeometry width="40" height="40" as="geometry" />
        </mxCell>
        <mxCell id="1dCuARmQQFrfibx1cBCv-74" value="Feeder" style="text;html=1;strokeColor=none;fillColor=none;align=center;verticalAlign=middle;whiteSpace=wrap;rounded=0;" parent="1dCuARmQQFrfibx1cBCv-70" vertex="1">
          <mxGeometry x="40" width="120" height="40" as="geometry" />
        </mxCell>
        <mxCell id="1dCuARmQQFrfibx1cBCv-75" value="" style="group" parent="1TDYrzWobA5GGV8SR7Ec-138" vertex="1" connectable="0">
          <mxGeometry y="520" width="160" height="40" as="geometry" />
        </mxCell>
        <mxCell id="1dCuARmQQFrfibx1cBCv-76" value="" style="group" parent="1dCuARmQQFrfibx1cBCv-75" vertex="1" connectable="0">
          <mxGeometry width="160" height="40" as="geometry" />
        </mxCell>
        <mxCell id="1dCuARmQQFrfibx1cBCv-77" value="" style="rounded=0;whiteSpace=wrap;html=1;" parent="1dCuARmQQFrfibx1cBCv-76" vertex="1">
          <mxGeometry width="160" height="40" as="geometry" />
        </mxCell>
        <mxCell id="1dCuARmQQFrfibx1cBCv-78" value="" style="endArrow=none;html=1;entryX=0.25;entryY=0;entryDx=0;entryDy=0;exitX=0.25;exitY=1;exitDx=0;exitDy=0;" parent="1dCuARmQQFrfibx1cBCv-76" source="1dCuARmQQFrfibx1cBCv-77" target="1dCuARmQQFrfibx1cBCv-77" edge="1">
          <mxGeometry width="50" height="50" relative="1" as="geometry">
            <mxPoint x="26.666666666666664" y="40" as="sourcePoint" />
            <mxPoint x="26.666666666666664" as="targetPoint" />
          </mxGeometry>
        </mxCell>
        <mxCell id="1dCuARmQQFrfibx1cBCv-79" value="Key" style="text;html=1;strokeColor=none;fillColor=none;align=center;verticalAlign=middle;whiteSpace=wrap;rounded=0;" parent="1dCuARmQQFrfibx1cBCv-76" vertex="1">
          <mxGeometry width="40" height="40" as="geometry" />
        </mxCell>
        <mxCell id="1dCuARmQQFrfibx1cBCv-80" value="Trapper" style="text;html=1;strokeColor=none;fillColor=none;align=center;verticalAlign=middle;whiteSpace=wrap;rounded=0;" parent="1dCuARmQQFrfibx1cBCv-76" vertex="1">
          <mxGeometry x="40" width="120" height="40" as="geometry" />
        </mxCell>
        <mxCell id="1dCuARmQQFrfibx1cBCv-81" value="" style="group" parent="1TDYrzWobA5GGV8SR7Ec-138" vertex="1" connectable="0">
          <mxGeometry y="480" width="160" height="40" as="geometry" />
        </mxCell>
        <mxCell id="1dCuARmQQFrfibx1cBCv-82" value="" style="group" parent="1dCuARmQQFrfibx1cBCv-81" vertex="1" connectable="0">
          <mxGeometry width="160" height="40" as="geometry" />
        </mxCell>
        <mxCell id="1dCuARmQQFrfibx1cBCv-83" value="" style="rounded=0;whiteSpace=wrap;html=1;" parent="1dCuARmQQFrfibx1cBCv-82" vertex="1">
          <mxGeometry width="160" height="40" as="geometry" />
        </mxCell>
        <mxCell id="1dCuARmQQFrfibx1cBCv-84" value="" style="endArrow=none;html=1;entryX=0.25;entryY=0;entryDx=0;entryDy=0;exitX=0.25;exitY=1;exitDx=0;exitDy=0;" parent="1dCuARmQQFrfibx1cBCv-82" source="1dCuARmQQFrfibx1cBCv-83" target="1dCuARmQQFrfibx1cBCv-83" edge="1">
          <mxGeometry width="50" height="50" relative="1" as="geometry">
            <mxPoint x="26.666666666666664" y="40" as="sourcePoint" />
            <mxPoint x="26.666666666666664" as="targetPoint" />
          </mxGeometry>
        </mxCell>
        <mxCell id="1dCuARmQQFrfibx1cBCv-85" value="Key" style="text;html=1;strokeColor=none;fillColor=none;align=center;verticalAlign=middle;whiteSpace=wrap;rounded=0;" parent="1dCuARmQQFrfibx1cBCv-82" vertex="1">
          <mxGeometry width="40" height="40" as="geometry" />
        </mxCell>
        <mxCell id="1dCuARmQQFrfibx1cBCv-86" value="Owner Info" style="text;html=1;strokeColor=none;fillColor=none;align=center;verticalAlign=middle;whiteSpace=wrap;rounded=0;" parent="1dCuARmQQFrfibx1cBCv-82" vertex="1">
          <mxGeometry x="40" width="120" height="40" as="geometry" />
        </mxCell>
        <mxCell id="1dCuARmQQFrfibx1cBCv-87" value="" style="group" parent="1TDYrzWobA5GGV8SR7Ec-138" vertex="1" connectable="0">
          <mxGeometry y="440" width="160" height="40" as="geometry" />
        </mxCell>
        <mxCell id="1dCuARmQQFrfibx1cBCv-88" value="" style="group" parent="1dCuARmQQFrfibx1cBCv-87" vertex="1" connectable="0">
          <mxGeometry width="160" height="40" as="geometry" />
        </mxCell>
        <mxCell id="1dCuARmQQFrfibx1cBCv-89" value="" style="rounded=0;whiteSpace=wrap;html=1;" parent="1dCuARmQQFrfibx1cBCv-88" vertex="1">
          <mxGeometry width="160" height="40" as="geometry" />
        </mxCell>
        <mxCell id="1dCuARmQQFrfibx1cBCv-90" value="" style="endArrow=none;html=1;entryX=0.25;entryY=0;entryDx=0;entryDy=0;exitX=0.25;exitY=1;exitDx=0;exitDy=0;" parent="1dCuARmQQFrfibx1cBCv-88" source="1dCuARmQQFrfibx1cBCv-89" target="1dCuARmQQFrfibx1cBCv-89" edge="1">
          <mxGeometry width="50" height="50" relative="1" as="geometry">
            <mxPoint x="26.666666666666664" y="40" as="sourcePoint" />
            <mxPoint x="26.666666666666664" as="targetPoint" />
          </mxGeometry>
        </mxCell>
        <mxCell id="1dCuARmQQFrfibx1cBCv-91" value="Key" style="text;html=1;strokeColor=none;fillColor=none;align=center;verticalAlign=middle;whiteSpace=wrap;rounded=0;" parent="1dCuARmQQFrfibx1cBCv-88" vertex="1">
          <mxGeometry width="40" height="40" as="geometry" />
        </mxCell>
        <mxCell id="1dCuARmQQFrfibx1cBCv-92" value="Spotted Location" style="text;html=1;strokeColor=none;fillColor=none;align=center;verticalAlign=middle;whiteSpace=wrap;rounded=0;" parent="1dCuARmQQFrfibx1cBCv-88" vertex="1">
          <mxGeometry x="40" width="120" height="40" as="geometry" />
        </mxCell>
        <mxCell id="1dCuARmQQFrfibx1cBCv-93" value="" style="group" parent="1TDYrzWobA5GGV8SR7Ec-138" vertex="1" connectable="0">
          <mxGeometry y="400" width="160" height="40" as="geometry" />
        </mxCell>
        <mxCell id="1dCuARmQQFrfibx1cBCv-94" value="" style="group" parent="1dCuARmQQFrfibx1cBCv-93" vertex="1" connectable="0">
          <mxGeometry width="160" height="40" as="geometry" />
        </mxCell>
        <mxCell id="1dCuARmQQFrfibx1cBCv-95" value="" style="rounded=0;whiteSpace=wrap;html=1;" parent="1dCuARmQQFrfibx1cBCv-94" vertex="1">
          <mxGeometry width="160" height="40" as="geometry" />
        </mxCell>
        <mxCell id="1dCuARmQQFrfibx1cBCv-96" value="" style="endArrow=none;html=1;entryX=0.25;entryY=0;entryDx=0;entryDy=0;exitX=0.25;exitY=1;exitDx=0;exitDy=0;" parent="1dCuARmQQFrfibx1cBCv-94" source="1dCuARmQQFrfibx1cBCv-95" target="1dCuARmQQFrfibx1cBCv-95" edge="1">
          <mxGeometry width="50" height="50" relative="1" as="geometry">
            <mxPoint x="26.666666666666664" y="40" as="sourcePoint" />
            <mxPoint x="26.666666666666664" as="targetPoint" />
          </mxGeometry>
        </mxCell>
        <mxCell id="1dCuARmQQFrfibx1cBCv-97" value="Key" style="text;html=1;strokeColor=none;fillColor=none;align=center;verticalAlign=middle;whiteSpace=wrap;rounded=0;" parent="1dCuARmQQFrfibx1cBCv-94" vertex="1">
          <mxGeometry width="40" height="40" as="geometry" />
        </mxCell>
        <mxCell id="1dCuARmQQFrfibx1cBCv-98" value="Reported Location" style="text;html=1;strokeColor=none;fillColor=none;align=center;verticalAlign=middle;whiteSpace=wrap;rounded=0;" parent="1dCuARmQQFrfibx1cBCv-94" vertex="1">
          <mxGeometry x="40" width="120" height="40" as="geometry" />
        </mxCell>
        <mxCell id="1dCuARmQQFrfibx1cBCv-99" value="" style="group" parent="1TDYrzWobA5GGV8SR7Ec-138" vertex="1" connectable="0">
          <mxGeometry y="360" width="160" height="40" as="geometry" />
        </mxCell>
        <mxCell id="1dCuARmQQFrfibx1cBCv-100" value="" style="group" parent="1dCuARmQQFrfibx1cBCv-99" vertex="1" connectable="0">
          <mxGeometry width="160" height="40" as="geometry" />
        </mxCell>
        <mxCell id="1dCuARmQQFrfibx1cBCv-101" value="" style="rounded=0;whiteSpace=wrap;html=1;" parent="1dCuARmQQFrfibx1cBCv-100" vertex="1">
          <mxGeometry width="160" height="40" as="geometry" />
        </mxCell>
        <mxCell id="1dCuARmQQFrfibx1cBCv-102" value="" style="endArrow=none;html=1;entryX=0.25;entryY=0;entryDx=0;entryDy=0;exitX=0.25;exitY=1;exitDx=0;exitDy=0;" parent="1dCuARmQQFrfibx1cBCv-100" source="1dCuARmQQFrfibx1cBCv-101" target="1dCuARmQQFrfibx1cBCv-101" edge="1">
          <mxGeometry width="50" height="50" relative="1" as="geometry">
            <mxPoint x="26.666666666666664" y="40" as="sourcePoint" />
            <mxPoint x="26.666666666666664" as="targetPoint" />
          </mxGeometry>
        </mxCell>
        <mxCell id="1dCuARmQQFrfibx1cBCv-103" value="String" style="text;html=1;strokeColor=none;fillColor=none;align=center;verticalAlign=middle;whiteSpace=wrap;rounded=0;" parent="1dCuARmQQFrfibx1cBCv-100" vertex="1">
          <mxGeometry width="40" height="40" as="geometry" />
        </mxCell>
        <mxCell id="1dCuARmQQFrfibx1cBCv-104" value="Pet Name" style="text;html=1;strokeColor=none;fillColor=none;align=center;verticalAlign=middle;whiteSpace=wrap;rounded=0;" parent="1dCuARmQQFrfibx1cBCv-100" vertex="1">
          <mxGeometry x="40" width="120" height="40" as="geometry" />
        </mxCell>
        <mxCell id="1TDYrzWobA5GGV8SR7Ec-41" value="" style="group" vertex="1" connectable="0" parent="1TDYrzWobA5GGV8SR7Ec-138">
          <mxGeometry y="880" width="160" height="40" as="geometry" />
        </mxCell>
        <mxCell id="1TDYrzWobA5GGV8SR7Ec-42" value="" style="group" vertex="1" connectable="0" parent="1TDYrzWobA5GGV8SR7Ec-41">
          <mxGeometry width="160" height="40" as="geometry" />
        </mxCell>
        <mxCell id="1TDYrzWobA5GGV8SR7Ec-43" value="" style="rounded=0;whiteSpace=wrap;html=1;" vertex="1" parent="1TDYrzWobA5GGV8SR7Ec-42">
          <mxGeometry width="160" height="40" as="geometry" />
        </mxCell>
        <mxCell id="1TDYrzWobA5GGV8SR7Ec-44" value="" style="endArrow=none;html=1;entryX=0.25;entryY=0;entryDx=0;entryDy=0;exitX=0.25;exitY=1;exitDx=0;exitDy=0;" edge="1" parent="1TDYrzWobA5GGV8SR7Ec-42" source="1TDYrzWobA5GGV8SR7Ec-43" target="1TDYrzWobA5GGV8SR7Ec-43">
          <mxGeometry width="50" height="50" relative="1" as="geometry">
            <mxPoint x="26.666666666666664" y="40" as="sourcePoint" />
            <mxPoint x="26.666666666666664" as="targetPoint" />
          </mxGeometry>
        </mxCell>
        <mxCell id="1TDYrzWobA5GGV8SR7Ec-45" value="Key" style="text;html=1;strokeColor=none;fillColor=none;align=center;verticalAlign=middle;whiteSpace=wrap;rounded=0;" vertex="1" parent="1TDYrzWobA5GGV8SR7Ec-42">
          <mxGeometry width="40" height="40" as="geometry" />
        </mxCell>
        <mxCell id="1TDYrzWobA5GGV8SR7Ec-46" value="Rejected Matched IDs" style="text;html=1;strokeColor=none;fillColor=none;align=center;verticalAlign=middle;whiteSpace=wrap;rounded=0;" vertex="1" parent="1TDYrzWobA5GGV8SR7Ec-42">
          <mxGeometry x="40" width="120" height="40" as="geometry" />
        </mxCell>
        <mxCell id="1TDYrzWobA5GGV8SR7Ec-47" value="" style="group" vertex="1" connectable="0" parent="1TDYrzWobA5GGV8SR7Ec-138">
          <mxGeometry y="840" width="160" height="40" as="geometry" />
        </mxCell>
        <mxCell id="1TDYrzWobA5GGV8SR7Ec-48" value="" style="group" vertex="1" connectable="0" parent="1TDYrzWobA5GGV8SR7Ec-47">
          <mxGeometry width="160" height="40" as="geometry" />
        </mxCell>
        <mxCell id="1TDYrzWobA5GGV8SR7Ec-49" value="" style="rounded=0;whiteSpace=wrap;html=1;" vertex="1" parent="1TDYrzWobA5GGV8SR7Ec-48">
          <mxGeometry width="160" height="40" as="geometry" />
        </mxCell>
        <mxCell id="1TDYrzWobA5GGV8SR7Ec-50" value="" style="endArrow=none;html=1;entryX=0.25;entryY=0;entryDx=0;entryDy=0;exitX=0.25;exitY=1;exitDx=0;exitDy=0;" edge="1" parent="1TDYrzWobA5GGV8SR7Ec-48" source="1TDYrzWobA5GGV8SR7Ec-49" target="1TDYrzWobA5GGV8SR7Ec-49">
          <mxGeometry width="50" height="50" relative="1" as="geometry">
            <mxPoint x="26.666666666666664" y="40" as="sourcePoint" />
            <mxPoint x="26.666666666666664" as="targetPoint" />
          </mxGeometry>
        </mxCell>
        <mxCell id="1TDYrzWobA5GGV8SR7Ec-51" value="Key" style="text;html=1;strokeColor=none;fillColor=none;align=center;verticalAlign=middle;whiteSpace=wrap;rounded=0;" vertex="1" parent="1TDYrzWobA5GGV8SR7Ec-48">
          <mxGeometry width="40" height="40" as="geometry" />
        </mxCell>
        <mxCell id="1TDYrzWobA5GGV8SR7Ec-52" value="Reunited ID" style="text;html=1;strokeColor=none;fillColor=none;align=center;verticalAlign=middle;whiteSpace=wrap;rounded=0;" vertex="1" parent="1TDYrzWobA5GGV8SR7Ec-48">
          <mxGeometry x="40" width="120" height="40" as="geometry" />
        </mxCell>
        <mxCell id="1TDYrzWobA5GGV8SR7Ec-53" value="" style="group" vertex="1" connectable="0" parent="1TDYrzWobA5GGV8SR7Ec-138">
          <mxGeometry y="800" width="160" height="40" as="geometry" />
        </mxCell>
        <mxCell id="1TDYrzWobA5GGV8SR7Ec-54" value="" style="group" vertex="1" connectable="0" parent="1TDYrzWobA5GGV8SR7Ec-53">
          <mxGeometry width="160" height="40" as="geometry" />
        </mxCell>
        <mxCell id="1TDYrzWobA5GGV8SR7Ec-55" value="" style="rounded=0;whiteSpace=wrap;html=1;" vertex="1" parent="1TDYrzWobA5GGV8SR7Ec-54">
          <mxGeometry width="160" height="40" as="geometry" />
        </mxCell>
        <mxCell id="1TDYrzWobA5GGV8SR7Ec-56" value="" style="endArrow=none;html=1;entryX=0.25;entryY=0;entryDx=0;entryDy=0;exitX=0.25;exitY=1;exitDx=0;exitDy=0;" edge="1" parent="1TDYrzWobA5GGV8SR7Ec-54" source="1TDYrzWobA5GGV8SR7Ec-55" target="1TDYrzWobA5GGV8SR7Ec-55">
          <mxGeometry width="50" height="50" relative="1" as="geometry">
            <mxPoint x="26.666666666666664" y="40" as="sourcePoint" />
            <mxPoint x="26.666666666666664" as="targetPoint" />
          </mxGeometry>
        </mxCell>
        <mxCell id="1TDYrzWobA5GGV8SR7Ec-57" value="Date" style="text;html=1;strokeColor=none;fillColor=none;align=center;verticalAlign=middle;whiteSpace=wrap;rounded=0;" vertex="1" parent="1TDYrzWobA5GGV8SR7Ec-54">
          <mxGeometry width="40" height="40" as="geometry" />
        </mxCell>
        <mxCell id="1TDYrzWobA5GGV8SR7Ec-58" value="Date Last Matched" style="text;html=1;strokeColor=none;fillColor=none;align=center;verticalAlign=middle;whiteSpace=wrap;rounded=0;" vertex="1" parent="1TDYrzWobA5GGV8SR7Ec-54">
          <mxGeometry x="40" width="120" height="40" as="geometry" />
        </mxCell>
        <mxCell id="1TDYrzWobA5GGV8SR7Ec-59" value="" style="group" vertex="1" connectable="0" parent="1TDYrzWobA5GGV8SR7Ec-138">
          <mxGeometry y="760" width="160" height="40" as="geometry" />
        </mxCell>
        <mxCell id="1TDYrzWobA5GGV8SR7Ec-60" value="" style="group" vertex="1" connectable="0" parent="1TDYrzWobA5GGV8SR7Ec-59">
          <mxGeometry width="160" height="40" as="geometry" />
        </mxCell>
        <mxCell id="1TDYrzWobA5GGV8SR7Ec-61" value="" style="rounded=0;whiteSpace=wrap;html=1;" vertex="1" parent="1TDYrzWobA5GGV8SR7Ec-60">
          <mxGeometry width="160" height="40" as="geometry" />
        </mxCell>
        <mxCell id="1TDYrzWobA5GGV8SR7Ec-62" value="" style="endArrow=none;html=1;entryX=0.25;entryY=0;entryDx=0;entryDy=0;exitX=0.25;exitY=1;exitDx=0;exitDy=0;" edge="1" parent="1TDYrzWobA5GGV8SR7Ec-60" source="1TDYrzWobA5GGV8SR7Ec-61" target="1TDYrzWobA5GGV8SR7Ec-61">
          <mxGeometry width="50" height="50" relative="1" as="geometry">
            <mxPoint x="26.666666666666664" y="40" as="sourcePoint" />
            <mxPoint x="26.666666666666664" as="targetPoint" />
          </mxGeometry>
        </mxCell>
        <mxCell id="1TDYrzWobA5GGV8SR7Ec-63" value="Date" style="text;html=1;strokeColor=none;fillColor=none;align=center;verticalAlign=middle;whiteSpace=wrap;rounded=0;" vertex="1" parent="1TDYrzWobA5GGV8SR7Ec-60">
          <mxGeometry width="40" height="40" as="geometry" />
        </mxCell>
        <mxCell id="1TDYrzWobA5GGV8SR7Ec-64" value="Date Status checked" style="text;html=1;strokeColor=none;fillColor=none;align=center;verticalAlign=middle;whiteSpace=wrap;rounded=0;" vertex="1" parent="1TDYrzWobA5GGV8SR7Ec-60">
          <mxGeometry x="40" width="120" height="40" as="geometry" />
        </mxCell>
        <mxCell id="1TDYrzWobA5GGV8SR7Ec-65" value="" style="group" vertex="1" connectable="0" parent="1TDYrzWobA5GGV8SR7Ec-138">
          <mxGeometry y="720" width="160" height="40" as="geometry" />
        </mxCell>
        <mxCell id="1TDYrzWobA5GGV8SR7Ec-66" value="" style="group" vertex="1" connectable="0" parent="1TDYrzWobA5GGV8SR7Ec-65">
          <mxGeometry width="160" height="40" as="geometry" />
        </mxCell>
        <mxCell id="1TDYrzWobA5GGV8SR7Ec-67" value="" style="rounded=0;whiteSpace=wrap;html=1;" vertex="1" parent="1TDYrzWobA5GGV8SR7Ec-66">
          <mxGeometry width="160" height="40" as="geometry" />
        </mxCell>
        <mxCell id="1TDYrzWobA5GGV8SR7Ec-68" value="" style="endArrow=none;html=1;entryX=0.25;entryY=0;entryDx=0;entryDy=0;exitX=0.25;exitY=1;exitDx=0;exitDy=0;" edge="1" parent="1TDYrzWobA5GGV8SR7Ec-66" source="1TDYrzWobA5GGV8SR7Ec-67" target="1TDYrzWobA5GGV8SR7Ec-67">
          <mxGeometry width="50" height="50" relative="1" as="geometry">
            <mxPoint x="26.666666666666664" y="40" as="sourcePoint" />
            <mxPoint x="26.666666666666664" as="targetPoint" />
          </mxGeometry>
        </mxCell>
        <mxCell id="1TDYrzWobA5GGV8SR7Ec-69" value="Text" style="text;html=1;strokeColor=none;fillColor=none;align=center;verticalAlign=middle;whiteSpace=wrap;rounded=0;" vertex="1" parent="1TDYrzWobA5GGV8SR7Ec-66">
          <mxGeometry width="40" height="40" as="geometry" />
        </mxCell>
        <mxCell id="1TDYrzWobA5GGV8SR7Ec-70" value="Admin notes" style="text;html=1;strokeColor=none;fillColor=none;align=center;verticalAlign=middle;whiteSpace=wrap;rounded=0;" vertex="1" parent="1TDYrzWobA5GGV8SR7Ec-66">
          <mxGeometry x="40" width="120" height="40" as="geometry" />
        </mxCell>
        <mxCell id="1TDYrzWobA5GGV8SR7Ec-139" style="edgeStyle=orthogonalEdgeStyle;rounded=0;orthogonalLoop=1;jettySize=auto;html=1;exitX=0;exitY=0.5;exitDx=0;exitDy=0;entryX=0.5;entryY=0;entryDx=0;entryDy=0;" edge="1" parent="1" source="1dCuARmQQFrfibx1cBCv-79" target="1TDYrzWobA5GGV8SR7Ec-87">
          <mxGeometry relative="1" as="geometry">
            <Array as="points">
              <mxPoint x="250" y="580" />
              <mxPoint x="250" y="-20" />
              <mxPoint x="-920" y="-20" />
            </Array>
          </mxGeometry>
        </mxCell>
      </root>
    </mxGraphModel>
  </diagram>
</mxfile>
